# xmcd
#
# Track frame offsets: 
#        150
#        17515
#        35788
#        54268
#        70278
#        90938
#        109965
#        131180
#        153280
#        167235
#        182308
#        206655
#        225740
#        249063
#        271020
#        285533
#        303335
#        325368
#        342593
#
# Disc length: 4736 seconds
#
# Revision: 1
# Processed by: cddbd v1.5.2PL0 Copyright (c) Steve Scherf et al.
# Submitted via: ExactAudioCopy v1.0b3
#
DISCID=03127e13
DTITLE=ABBA - Gold: Greatest Hits
DYEAR=1992
DGENRE=Classic Pop-Rock
TTITLE0=Dancing Queen
TTITLE1=Knowing Me, Knowing You
TTITLE2=Take A Chance On Me
TTITLE3=Mamma Mia
TTITLE4=Lay All Your Love On Me
TTITLE5=Super Trouper
TTITLE6=I Have A Dream
TTITLE7=The Winner Takes It All
TTITLE8=Money, Money, Money
TTITLE9=S.O.S.
TTITLE10=Chiquitita
TTITLE11=Fernando
TTITLE12=Voulez-Vous
TTITLE13=Gimme! Gimme! Gimme! (A Man After Midnight)
TTITLE14=Does Your Mother Know
TTITLE15=One Of Us
TTITLE16=The Name Of The Game
TTITLE17=Thank You For The Music
TTITLE18=Waterloo
EXTD=
EXTT0=
EXTT1=
EXTT2=
EXTT3=
EXTT4=
EXTT5=
EXTT6=
EXTT7=
EXTT8=
EXTT9=
EXTT10=
EXTT11=
EXTT12=
EXTT13=
EXTT14=
EXTT15=
EXTT16=
EXTT17=
EXTT18=
PLAYORDER=
